# xmcd CD database file
#
# Track frame offsets:
#	150
#	14113
#	38477
#	56938
#	79867
#	109466
#	129494
#	154723
#	171074
#	190471
#	211854
#	233039
#	259258
#	282322
#	302296
#
# Disc length: 4296 seconds
#
# Revision: 0
# Processed by: cddbd v1.4PL0 Copyright (c) Steve Scherf et al.
# Submitted via: CDex 1.51
#
DISCID=d010c60f
DTITLE=Various Artist - The Best Smooth Jazz
DYEAR=2002
DGENRE=Jazz
TTITLE0=Mr. Chow
TTITLE1=People Make The World Go 'Round
TTITLE2=Kid Gloves
TTITLE3=Through The Test Of Time
TTITLE4=Baby, Come To Me
TTITLE5=A Little Bumpin'
TTITLE6=Homecoming
TTITLE7=Crush
TTITLE8=Just To Be Loved
TTITLE9=Rejoyce
TTITLE10=Madrid
TTITLE11=Droptop
TTITLE12=Mm-Mm Good
TTITLE13=Roll With It
TTITLE14=Uncle Darrows
EXTD=YEAR: 2002
EXTT0=
EXTT1=
EXTT2=
EXTT3=
EXTT4=
EXTT5=
EXTT6=
EXTT7=
EXTT8=
EXTT9=
EXTT10=
EXTT11=
EXTT12=
EXTT13=
EXTT14=
PLAYORDER=
